# xmcd CD database file
#
# Track frame offsets:
#	150
#	23424
#	44660
#	72689
#	93737
#	117614
#	138872
#	162240
#	189107
#	210537
#	233123
#
# Disc length: 3432 seconds
#
# Revision: 0
# Processed by: cddbd v1.5.2PL0 Copyright (c) Steve Scherf et al.
# Submitted via: CDex 1.51
#
DISCID=990d660b
DTITLE=david calzado y su - LA CARATULA
DYEAR=2009
DGENRE=Salsa
TTITLE0=tu no eres mejor que yo
TTITLE1=hay mujeres
TTITLE2=la caratula
TTITLE3=con la misma loca
TTITLE4=gozando en la habana
TTITLE5=la chica mas bella
TTITLE6=la mitad
TTITLE7=juana magdalena
TTITLE8=hola
TTITLE9=olvidadiza
TTITLE10=ni un oscar ni un grammy
EXTD=YEAR: 2009
EXTT0=
EXTT1=
EXTT2=
EXTT3=
EXTT4=
EXTT5=
EXTT6=
EXTT7=
EXTT8=
EXTT9=
EXTT10=
PLAYORDER=
